<svg xmlns="http://www.w3.org/2000/svg" version="1.1" xmlns:xlink="http://www.w3.org/1999/xlink" xmlns:svgjs="http://svgjs.com/svgjs" width="1920" height="1200" preserveAspectRatio="none" viewBox="0 0 1920 1200"><g mask="url(&quot;#SvgjsMask1081&quot;)" fill="none"><rect width="1920" height="1200" x="0" y="0" fill="rgba(246, 251, 255, 1)"></rect><path d="M1670.4299999999998 438.29999999999995 L1610.2199999999998 659.76L1489.0821904814666 397.7871904814666z" stroke="rgba(36, 58, 126, 1)" stroke-width="1" stroke-dasharray="3, 2"></path><circle r="100" cx="438.63" cy="776.12" fill="rgba(36, 58, 126, 1)"></circle><rect width="672" height="672" clip-path="url(&quot;#SvgjsClipPath1082&quot;)" x="983.64" y="631.4" fill="url(#SvgjsPattern1083)" transform="rotate(69.61, 1319.64, 967.4)"></rect><path d="M438.38 873.36a5.6 5.6 0 1 0-9.91 5.21 5.6 5.6 0 1 0 9.91-5.21zM424.22 880.81a5.6 5.6 0 1 0-9.92 5.21 5.6 5.6 0 1 0 9.92-5.21zM410.06 888.25a5.6 5.6 0 1 0-9.92 5.21 5.6 5.6 0 1 0 9.92-5.21zM395.89 895.7a5.6 5.6 0 1 0-9.91 5.21 5.6 5.6 0 1 0 9.91-5.21zM459.26 844.31a5.6 5.6 0 1 0-9.91 5.21 5.6 5.6 0 1 0 9.91-5.21zM445.1 851.75a5.6 5.6 0 1 0-9.92 5.22 5.6 5.6 0 1 0 9.92-5.22zM430.94 859.2a5.6 5.6 0 1 0-9.92 5.21 5.6 5.6 0 1 0 9.92-5.21zM416.77 866.64a5.6 5.6 0 1 0-9.91 5.22 5.6 5.6 0 1 0 9.91-5.22z" fill="rgba(247, 118, 107, 1)"></path><circle r="100" cx="351.36" cy="267.4" fill="rgba(36, 58, 126, 1)"></circle><rect width="132" height="132" clip-path="url(&quot;#SvgjsClipPath1084&quot;)" x="996.29" y="697.15" fill="url(#SvgjsPattern1085)" transform="rotate(275.73, 1062.29, 763.15)"></rect><path d="M7.57 598.91a5.6 5.6 0 1 0-11.13-1.25 5.6 5.6 0 1 0 11.13 1.25zM-8.33 597.12a5.6 5.6 0 1 0-11.13-1.25 5.6 5.6 0 1 0 11.13 1.25zM-24.23 595.33a5.6 5.6 0 1 0-11.13-1.25 5.6 5.6 0 1 0 11.13 1.25zM-40.13 593.54a5.6 5.6 0 1 0-11.13-1.26 5.6 5.6 0 1 0 11.13 1.26zM41.16 586.6a5.6 5.6 0 1 0-11.13-1.26 5.6 5.6 0 1 0 11.13 1.26zM25.26 584.81a5.6 5.6 0 1 0-11.13-1.26 5.6 5.6 0 1 0 11.13 1.26zM9.36 583.01a5.6 5.6 0 1 0-11.13-1.25 5.6 5.6 0 1 0 11.13 1.25zM-6.54 581.22a5.6 5.6 0 1 0-11.13-1.25 5.6 5.6 0 1 0 11.13 1.25zM74.75 574.28a5.6 5.6 0 1 0-11.13-1.25 5.6 5.6 0 1 0 11.13 1.25zM58.85 572.49a5.6 5.6 0 1 0-11.13-1.25 5.6 5.6 0 1 0 11.13 1.25zM42.95 570.7a5.6 5.6 0 1 0-11.13-1.26 5.6 5.6 0 1 0 11.13 1.26zM27.05 568.91a5.6 5.6 0 1 0-11.13-1.26 5.6 5.6 0 1 0 11.13 1.26z" stroke="rgba(36, 58, 126, 1)" stroke-width="2.65"></path><path d="M1806.7599999999998 424 L1815.1 693.8L1929.4644333875276 440.36556661247215z" fill="rgba(247, 118, 107, 1)"></path></g><defs><mask id="SvgjsMask1081"><rect width="1920" height="1200" fill="#ffffff"></rect></mask><pattern x="0" y="0" width="6" height="6" patternUnits="userSpaceOnUse" id="SvgjsPattern1083"><path d="M0 6L3 0L6 6" stroke="rgba(247, 118, 107, 1)" fill="none"></path></pattern><clipPath id="SvgjsClipPath1082"><circle r="168" cx="1319.64" cy="967.4"></circle></clipPath><pattern x="0" y="0" width="132" height="6" patternUnits="userSpaceOnUse" id="SvgjsPattern1085"><rect width="132" height="3" x="0" y="0" fill="rgba(36, 58, 126, 1)"></rect><rect width="132" height="3" x="0" y="3" fill="rgba(0, 0, 0, 0)"></rect></pattern><clipPath id="SvgjsClipPath1084"><circle r="33" cx="1062.29" cy="763.15"></circle></clipPath></defs></svg>