<svg xmlns="http://www.w3.org/2000/svg" version="1.1" xmlns:xlink="http://www.w3.org/1999/xlink" xmlns:svgjs="http://svgjs.com/svgjs" width="1920" height="1200" preserveAspectRatio="none" viewBox="0 0 1920 1200"><g mask="url(&quot;#SvgjsMask1218&quot;)" fill="none"><rect width="1920" height="1200" x="0" y="0" fill="rgba(255, 255, 255, 1)"></rect><path d="M1586.6 518.24 L1757.55 644.83L1811.0306777630246 442.57932223697514z" fill="rgba(36, 58, 126, 1)"></path><rect width="444" height="444" clip-path="url(&quot;#SvgjsClipPath1219&quot;)" x="1234.82" y="868.32" fill="url(#SvgjsPattern1220)" transform="rotate(350.63, 1456.82, 1090.32)"></rect><rect width="324" height="324" clip-path="url(&quot;#SvgjsClipPath1221&quot;)" x="1098.37" y="278.65" fill="url(#SvgjsPattern1222)" transform="rotate(237.65, 1260.37, 440.65)"></rect><path d="M55.84 1038.21L64.97 1029.23 75.74 1036.17 84.87 1027.19 95.63 1034.13 104.76 1025.15 115.53 1032.09" stroke="rgba(247, 118, 107, 1)" stroke-width="1" stroke-dasharray="4, 4"></path><path d="M23.42 589.5a5.6 5.6 0 1 0-2.82-10.84 5.6 5.6 0 1 0 2.82 10.84zM19.4 574.02a5.6 5.6 0 1 0-2.82-10.84 5.6 5.6 0 1 0 2.82 10.84zM15.38 558.53a5.6 5.6 0 1 0-2.82-10.84 5.6 5.6 0 1 0 2.82 10.84zM11.36 543.04a5.6 5.6 0 1 0-2.82-10.84 5.6 5.6 0 1 0 2.82 10.84zM46.94 616.46a5.6 5.6 0 1 0-2.81-10.84 5.6 5.6 0 1 0 2.81 10.84zM42.92 600.97a5.6 5.6 0 1 0-2.81-10.84 5.6 5.6 0 1 0 2.81 10.84zM38.9 585.48a5.6 5.6 0 1 0-2.81-10.84 5.6 5.6 0 1 0 2.81 10.84zM34.88 570a5.6 5.6 0 1 0-2.81-10.84 5.6 5.6 0 1 0 2.81 10.84zM70.47 643.41a5.6 5.6 0 1 0-2.82-10.84 5.6 5.6 0 1 0 2.82 10.84zM66.45 627.92a5.6 5.6 0 1 0-2.82-10.84 5.6 5.6 0 1 0 2.82 10.84zM62.43 612.44a5.6 5.6 0 1 0-2.82-10.84 5.6 5.6 0 1 0 2.82 10.84zM58.41 596.95a5.6 5.6 0 1 0-2.81-10.84 5.6 5.6 0 1 0 2.81 10.84z" fill="rgba(36, 58, 126, 1)"></path><rect width="600" height="600" clip-path="url(&quot;#SvgjsClipPath1223&quot;)" x="947.71" y="740.34" fill="url(#SvgjsPattern1224)" transform="rotate(298.56, 1247.71, 1040.34)"></rect><rect width="540" height="540" clip-path="url(&quot;#SvgjsClipPath1225&quot;)" x="1092.3" y="44.19" fill="url(#SvgjsPattern1226)" transform="rotate(180.94, 1362.3, 314.19)"></rect><path d="M1180.8 464.66 L1181.5 197.57999999999998L1348.2982067031287 498.2682067031285z" stroke="rgba(247, 118, 107, 1)" stroke-width="1" stroke-dasharray="4, 4"></path></g><defs><mask id="SvgjsMask1218"><rect width="1920" height="1200" fill="#ffffff"></rect></mask><pattern x="0" y="0" width="6" height="6" patternUnits="userSpaceOnUse" id="SvgjsPattern1220"><path d="M3 1L3 5M1 3L5 3" stroke="rgba(247, 118, 107, 1)" fill="none" stroke-width="1"></path></pattern><clipPath id="SvgjsClipPath1219"><circle r="111" cx="1456.82" cy="1090.32"></circle></clipPath><pattern x="0" y="0" width="8.1" height="8.1" patternUnits="userSpaceOnUse" id="SvgjsPattern1222"><path d="M4.05 1L4.05 7.1M1 4.05L7.1 4.05" stroke="rgba(247, 118, 107, 1)" fill="none" stroke-width="1"></path></pattern><clipPath id="SvgjsClipPath1221"><circle r="81" cx="1260.37" cy="440.65"></circle></clipPath><pattern x="0" y="0" width="6" height="6" patternUnits="userSpaceOnUse" id="SvgjsPattern1224"><path d="M3 1L3 5M1 3L5 3" stroke="rgba(36, 58, 126, 1)" fill="none" stroke-width="1.29"></path></pattern><clipPath id="SvgjsClipPath1223"><circle r="150" cx="1247.71" cy="1040.34"></circle></clipPath><pattern x="0" y="0" width="540" height="6" patternUnits="userSpaceOnUse" id="SvgjsPattern1226"><rect width="540" height="3" x="0" y="0" fill="rgba(36, 58, 126, 1)"></rect><rect width="540" height="3" x="0" y="3" fill="rgba(0, 0, 0, 0)"></rect></pattern><clipPath id="SvgjsClipPath1225"><circle r="135" cx="1362.3" cy="314.19"></circle></clipPath></defs></svg>