
<svg width="32768" height="5496" viewBox="0 0 32768 5496" fill="none" xmlns="http://www.w3.org/2000/svg">
<path d="M414.31 3350.21C351.397 3350.21 298.493 3328.77 255.598 3285.87C212.703 3242.98 191.255 3190.07 191.255 3127.16V223.158C191.255 157.386 212.703 104.482 255.598 64.4463C298.493 21.5512 351.397 0.103666 414.31 0.103666H2353.17C2418.94 0.103666 2471.85 20.1214 2511.88 60.1569C2551.92 97.3327 2571.94 147.377 2571.94 210.29C2571.94 270.343 2551.92 318.957 2511.88 356.133C2471.85 393.309 2418.94 411.897 2353.17 411.897H637.365V1454.25H1868.46C1934.23 1454.25 1987.13 1474.27 2027.17 1514.3C2067.2 1551.48 2087.22 1600.09 2087.22 1660.15C2087.22 1720.2 2067.2 1770.24 2027.17 1810.28C1987.13 1847.45 1934.23 1866.04 1868.46 1866.04H637.365V2938.42H2353.17C2418.94 2938.42 2471.85 2957.01 2511.88 2994.18C2551.92 3031.36 2571.94 3079.97 2571.94 3140.03C2571.94 3202.94 2551.92 3254.41 2511.88 3294.45C2471.85 3331.63 2418.94 3350.21 2353.17 3350.21H414.31Z" fill="#F35F51"/>
<path d="M28716.9 4541.72C28782.7 4541.72 28836.1 4595.07 28836.1 4660.87V4660.87C28836.1 4726.68 28782.7 4780.03 28716.9 4780.03L1.03739 4780.03L1.03739 4541.72L28716.9 4541.72Z" fill="#243A7E"/>
<path d="M32648.8 5256.9C32714.7 5256.9 32768 5310.25 32768 5376.06V5376.06C32768 5441.87 32714.7 5495.21 32648.8 5495.21L0.88361 5495.21L0.883619 5256.9L32648.8 5256.9Z" fill="#F35F51"/>
<path d="M3088.86 3364.39C3031.67 3364.39 2985.91 3347.23 2951.59 3312.91C2920.14 3275.74 2904.41 3231.41 2904.41 3179.94C2904.41 3128.47 2924.43 3076.99 2964.46 3025.52L3629.34 2193.35L2921.57 1356.9C2884.39 1311.14 2864.37 1262.53 2861.51 1211.05C2858.65 1156.72 2872.95 1110.96 2904.41 1073.79C2935.87 1036.61 2983.05 1018.02 3045.96 1018.02C3114.6 1018.02 3168.93 1042.33 3208.96 1090.95L3912.45 1931.69L4543 1090.95C4565.88 1062.35 4590.19 1043.76 4615.93 1035.18C4641.66 1023.74 4670.26 1018.02 4701.72 1018.02C4764.63 1018.02 4811.81 1038.04 4843.27 1078.08C4874.73 1115.25 4889.02 1161.01 4886.16 1215.34C4886.16 1269.68 4866.15 1322.58 4826.11 1374.05L4178.39 2219.09L4860.43 3034.1C4903.32 3085.57 4923.34 3137.04 4920.48 3188.52C4920.48 3237.13 4901.89 3278.6 4864.72 3312.91C4830.4 3347.23 4784.65 3364.39 4727.45 3364.39C4698.86 3364.39 4671.69 3360.1 4645.95 3351.52C4620.21 3342.94 4595.91 3324.35 4573.03 3295.76L3891 2480.75L3243.28 3295.76C3200.39 3341.51 3148.91 3364.39 3088.86 3364.39Z" fill="#243A7E"/>
<path d="M6318.16 3381.55C6089.38 3381.55 5884.92 3330.07 5704.76 3227.12C5527.46 3121.32 5387.33 2979.76 5284.39 2802.46C5184.3 2622.3 5134.25 2419.27 5134.25 2193.35C5134.25 1961.72 5184.3 1755.82 5284.39 1575.66C5384.47 1395.5 5521.74 1255.38 5696.18 1155.29C5870.62 1052.34 6070.8 1000.87 6296.71 1000.87C6634.15 1000.87 6914.4 1129.55 7137.46 1386.92C7177.49 1432.68 7191.79 1479.86 7180.35 1528.48C7168.91 1577.09 7137.45 1619.99 7085.98 1657.16C7045.95 1685.76 7001.62 1695.77 6953.01 1687.19C6904.39 1675.75 6860.07 1650.01 6820.03 1609.98C6679.91 1461.27 6505.47 1386.92 6296.71 1386.92C6076.52 1386.92 5897.79 1461.27 5760.52 1609.98C5623.26 1755.82 5554.62 1950.28 5554.62 2193.35C5554.62 2347.77 5586.08 2485.04 5648.99 2605.14C5714.77 2725.25 5804.85 2821.05 5919.23 2892.54C6033.62 2961.17 6166.6 2995.49 6318.16 2995.49C6512.62 2995.49 6669.9 2945.45 6790 2845.36C6835.76 2808.18 6882.94 2788.16 6931.56 2785.3C6980.17 2779.58 7023.07 2792.45 7060.24 2823.91C7108.86 2863.95 7136.03 2909.7 7141.74 2961.17C7147.46 3009.79 7130.31 3054.11 7090.27 3094.15C6884.37 3285.75 6627 3381.55 6318.16 3381.55Z" fill="#243A7E"/>
<path d="M8932.98 3381.55C8695.63 3381.55 8484.02 3331.5 8298.14 3231.41C8115.12 3128.47 7970.7 2988.34 7864.9 2811.04C7761.95 2630.88 7710.47 2424.99 7710.47 2193.35C7710.47 1958.86 7759.09 1752.96 7856.32 1575.66C7956.41 1395.5 8093.67 1255.38 8268.11 1155.29C8442.55 1052.34 8642.73 1000.87 8868.64 1000.87C9091.7 1000.87 9283.3 1050.91 9443.44 1151C9603.58 1248.23 9725.11 1384.06 9808.05 1558.5C9893.84 1730.08 9936.73 1928.83 9936.73 2154.75C9936.73 2209.08 9918.14 2254.83 9880.97 2292.01C9843.79 2326.33 9796.61 2343.48 9739.41 2343.48H8109.4C8140.85 2540.8 8230.93 2702.37 8379.64 2828.2C8531.2 2951.17 8715.65 3012.65 8932.98 3012.65C9021.63 3012.65 9111.71 2996.92 9203.22 2965.46C9297.59 2931.15 9373.37 2892.54 9430.57 2849.65C9473.46 2818.19 9519.22 2802.46 9567.83 2802.46C9619.31 2799.6 9663.63 2813.9 9700.81 2845.36C9749.42 2888.25 9775.16 2935.44 9778.02 2986.91C9780.88 3038.39 9758 3082.71 9709.39 3119.89C9612.16 3197.1 9490.62 3260.01 9344.78 3308.62C9201.79 3357.24 9064.53 3381.55 8932.98 3381.55ZM8868.64 1369.76C8657.03 1369.76 8486.88 1428.39 8358.19 1545.63C8229.5 1662.88 8148 1814.44 8113.69 2000.32H9542.1C9516.36 1817.3 9446.3 1667.17 9331.91 1549.92C9217.52 1429.82 9063.1 1369.76 8868.64 1369.76Z" fill="#243A7E"/>
<path d="M11513.4 3381.55C11276 3381.55 11064.4 3331.5 10878.5 3231.41C10695.5 3128.47 10551.1 2988.34 10445.3 2811.04C10342.4 2630.88 10290.9 2424.99 10290.9 2193.35C10290.9 1958.86 10339.5 1752.96 10436.7 1575.66C10536.8 1395.5 10674.1 1255.38 10848.5 1155.29C11023 1052.34 11223.1 1000.87 11449.1 1000.87C11672.1 1000.87 11863.7 1050.91 12023.8 1151C12184 1248.23 12305.5 1384.06 12388.5 1558.5C12474.2 1730.08 12517.1 1928.83 12517.1 2154.75C12517.1 2209.08 12498.6 2254.83 12461.4 2292.01C12424.2 2326.33 12377 2343.48 12319.8 2343.48H10689.8C10721.3 2540.8 10811.3 2702.37 10960 2828.2C11111.6 2951.17 11296.1 3012.65 11513.4 3012.65C11602 3012.65 11692.1 2996.92 11783.6 2965.46C11878 2931.15 11953.8 2892.54 12011 2849.65C12053.9 2818.19 12099.6 2802.46 12148.2 2802.46C12199.7 2799.6 12244 2813.9 12281.2 2845.36C12329.8 2888.25 12355.6 2935.44 12358.4 2986.91C12361.3 3038.39 12338.4 3082.71 12289.8 3119.89C12192.6 3197.1 12071 3260.01 11925.2 3308.62C11782.2 3357.24 11644.9 3381.55 11513.4 3381.55ZM11449.1 1369.76C11237.4 1369.76 11067.3 1428.39 10938.6 1545.63C10809.9 1662.88 10728.4 1814.44 10694.1 2000.32H12122.5C12096.8 1817.3 12026.7 1667.17 11912.3 1549.92C11797.9 1429.82 11643.5 1369.76 11449.1 1369.76Z" fill="#243A7E"/>
<path d="M14055.2 3381.55C13832.1 3381.55 13630.5 3330.07 13450.4 3227.12C13273.1 3121.32 13131.5 2978.33 13025.7 2798.17C12922.8 2618.01 12871.3 2414.98 12871.3 2189.06C12871.3 1963.15 12918.5 1761.54 13012.8 1584.24C13110.1 1404.08 13241.6 1262.53 13407.5 1159.58C13573.3 1053.77 13760.7 1000.87 13969.4 1000.87C14138.1 1000.87 14294 1036.61 14437 1108.1C14580 1176.74 14700.1 1271.11 14797.3 1391.21V233.043C14797.3 167.271 14817.3 114.367 14857.3 74.3315C14900.2 34.296 14953.1 14.2783 15016.1 14.2783C15081.8 14.2783 15134.7 34.296 15174.8 74.3315C15214.8 114.367 15234.8 167.271 15234.8 233.043V2189.06C15234.8 2414.98 15181.9 2618.01 15076.1 2798.17C14973.2 2978.33 14833 3121.32 14655.7 3227.12C14478.4 3330.07 14278.3 3381.55 14055.2 3381.55ZM14055.2 2995.49C14201 2995.49 14331.2 2961.17 14445.5 2892.54C14559.9 2821.05 14650 2723.82 14715.8 2600.85C14781.6 2477.89 14814.4 2340.62 14814.4 2189.06C14814.4 2034.64 14781.6 1897.37 14715.8 1777.27C14650 1657.16 14559.9 1562.79 14445.5 1494.16C14331.2 1422.67 14201 1386.92 14055.2 1386.92C13912.2 1386.92 13782.1 1422.67 13664.9 1494.16C13550.5 1562.79 13459 1657.16 13390.3 1777.27C13324.6 1897.37 13291.7 2034.64 13291.7 2189.06C13291.7 2340.62 13324.6 2477.89 13390.3 2600.85C13459 2723.82 13550.5 2821.05 13664.9 2892.54C13782.1 2961.17 13912.2 2995.49 14055.2 2995.49Z" fill="#243A7E"/>
<path d="M18297.9 3364.39C18235 3364.39 18182.1 3342.94 18139.2 3300.05C18096.3 3257.15 18074.9 3204.25 18074.9 3141.33V426.071H17148.3C17088.3 426.071 17038.2 407.484 16998.2 370.308C16961 330.272 16942.4 280.228 16942.4 220.175C16942.4 160.122 16961 111.507 16998.2 74.3315C17038.2 34.296 17088.3 14.2783 17148.3 14.2783H19443.2C19503.3 14.2783 19551.9 34.296 19589.1 74.3315C19629.1 111.507 19649.1 160.122 19649.1 220.175C19649.1 280.228 19629.1 330.272 19589.1 370.308C19551.9 407.484 19503.3 426.071 19443.2 426.071H18521V3141.33C18521 3204.25 18499.5 3257.15 18456.6 3300.05C18413.7 3342.94 18360.8 3364.39 18297.9 3364.39Z" fill="#243A7E"/>
<path d="M20557.4 3381.55C20320 3381.55 20108.4 3331.5 19922.5 3231.41C19739.5 3128.47 19595.1 2988.34 19489.3 2811.04C19386.4 2630.88 19334.9 2424.99 19334.9 2193.35C19334.9 1958.86 19383.5 1752.96 19480.7 1575.66C19580.8 1395.5 19718.1 1255.38 19892.5 1155.29C20067 1052.34 20267.1 1000.87 20493.1 1000.87C20716.1 1000.87 20907.7 1050.91 21067.8 1151C21228 1248.23 21349.5 1384.06 21432.5 1558.5C21518.2 1730.08 21561.1 1928.83 21561.1 2154.75C21561.1 2209.08 21542.6 2254.83 21505.4 2292.01C21468.2 2326.33 21421 2343.48 21363.8 2343.48H19733.8C19765.3 2540.8 19855.3 2702.37 20004.1 2828.2C20155.6 2951.17 20340.1 3012.65 20557.4 3012.65C20646 3012.65 20736.1 2996.92 20827.6 2965.46C20922 2931.15 20997.8 2892.54 21055 2849.65C21097.9 2818.19 21143.6 2802.46 21192.2 2802.46C21243.7 2799.6 21288 2813.9 21325.2 2845.36C21373.8 2888.25 21399.6 2935.44 21402.4 2986.91C21405.3 3038.39 21382.4 3082.71 21333.8 3119.89C21236.6 3197.1 21115 3260.01 20969.2 3308.62C20826.2 3357.24 20688.9 3381.55 20557.4 3381.55ZM20493.1 1369.76C20281.4 1369.76 20111.3 1428.39 19982.6 1545.63C19853.9 1662.88 19772.4 1814.44 19738.1 2000.32H21166.5C21140.8 1817.3 21070.7 1667.17 20956.3 1549.92C20841.9 1429.82 20687.5 1369.76 20493.1 1369.76Z" fill="#243A7E"/>
<path d="M23013.4 3381.55C22804.7 3381.55 22617.3 3330.07 22451.5 3227.12C22285.6 3121.32 22154.1 2979.76 22056.8 2802.46C21962.5 2622.3 21915.3 2419.27 21915.3 2193.35C21915.3 1967.44 21966.8 1764.4 22069.7 1584.24C22175.5 1404.08 22317.1 1262.53 22494.4 1159.58C22674.5 1053.77 22876.1 1000.87 23099.2 1000.87C23322.3 1000.87 23522.4 1053.77 23699.7 1159.58C23877 1262.53 24017.2 1404.08 24120.1 1584.24C24225.9 1764.4 24278.8 1967.44 24278.8 2193.35V3149.91C24278.8 3212.83 24257.4 3265.73 24214.5 3308.62C24174.4 3348.66 24123 3368.68 24060.1 3368.68C23997.1 3368.68 23944.2 3348.66 23901.3 3308.62C23861.3 3265.73 23841.3 3212.83 23841.3 3149.91V2991.2C23741.2 3111.31 23619.7 3207.11 23476.7 3278.6C23336.6 3347.23 23182.1 3381.55 23013.4 3381.55ZM23099.2 2995.49C23245 2995.49 23375.2 2961.17 23489.5 2892.54C23603.9 2821.05 23694 2725.25 23759.8 2605.14C23825.6 2482.18 23858.4 2344.91 23858.4 2193.35C23858.4 2038.93 23825.6 1901.66 23759.8 1781.56C23694 1658.59 23603.9 1562.79 23489.5 1494.16C23375.2 1422.67 23245 1386.92 23099.2 1386.92C22956.2 1386.92 22826.1 1422.67 22708.9 1494.16C22594.5 1562.79 22503 1658.59 22434.3 1781.56C22368.6 1901.66 22335.7 2038.93 22335.7 2193.35C22335.7 2344.91 22368.6 2482.18 22434.3 2605.14C22503 2725.25 22594.5 2821.05 22708.9 2892.54C22826.1 2961.17 22956.2 2995.49 23099.2 2995.49Z" fill="#243A7E"/>
<path d="M25148.8 3368.68C25085.8 3368.68 25032.9 3348.66 24990 3308.62C24950 3265.73 24930 3212.83 24930 3149.91V1241.08C24930 1175.31 24950 1122.4 24990 1082.37C25032.9 1042.33 25085.8 1022.31 25148.8 1022.31C25214.5 1022.31 25267.4 1042.33 25307.5 1082.37C25347.5 1122.4 25367.5 1172.45 25367.5 1232.5C25441.9 1158.15 25530.5 1100.96 25633.5 1060.92C25736.4 1018.02 25847.9 996.577 25968 996.577C26268.3 996.577 26494.2 1109.53 26645.8 1335.45C26728.7 1229.64 26834.5 1146.71 26963.2 1086.66C27091.9 1026.6 27236.3 996.577 27396.5 996.577C27642.4 996.577 27842.6 1076.65 27997 1236.79C28151.4 1396.93 28228.6 1625.71 28228.6 1923.11V3149.91C28228.6 3212.83 28208.6 3265.73 28168.6 3308.62C28128.5 3348.66 28075.6 3368.68 28009.9 3368.68C27946.9 3368.68 27894 3348.66 27851.1 3308.62C27811.1 3265.73 27791.1 3212.83 27791.1 3149.91V1923.11C27791.1 1742.95 27746.8 1609.98 27658.1 1524.19C27569.5 1435.54 27453.6 1391.21 27310.7 1391.21C27162 1391.21 27039 1442.69 26941.8 1545.63C26847.4 1648.58 26800.2 1780.13 26800.2 1940.27V3149.91C26800.2 3212.83 26780.2 3265.73 26740.2 3308.62C26700.1 3348.66 26647.2 3368.68 26581.4 3368.68C26518.5 3368.68 26465.6 3348.66 26422.7 3308.62C26382.7 3265.73 26362.7 3212.83 26362.7 3149.91V1923.11C26362.7 1742.95 26318.4 1609.98 26229.7 1524.19C26141.1 1435.54 26025.2 1391.21 25882.3 1391.21C25733.6 1391.21 25610.6 1442.69 25513.4 1545.63C25416.1 1648.58 25367.5 1780.13 25367.5 1940.27V3149.91C25367.5 3212.83 25347.5 3265.73 25307.5 3308.62C25267.4 3348.66 25214.5 3368.68 25148.8 3368.68Z" fill="#243A7E"/>
</svg>